<?xml version="1.0" encoding="utf-8"?>
<!-- Generator: Adobe Illustrator 24.3.0, SVG Export Plug-In . SVG Version: 6.00 Build 0)  -->
<svg version="1.1" id="Layer_1" xmlns="http://www.w3.org/2000/svg" xmlns:xlink="http://www.w3.org/1999/xlink" x="0px" y="0px"
	 viewBox="0 0 198.4 198.4" style="enable-background:new 0 0 198.4 198.4;" xml:space="preserve">
<style type="text/css">
	.st0{fill:#333132;}
	.st1{fill:#F1F2F2;}
	.st2{fill:#ED2524;}
	.st3{fill:#EC1F7E;}
	.st4{fill:#B54C9B;}
	.st5{fill:#7F55A2;}
	.st6{fill:#3E6BB3;}
	.st7{fill:#0097D8;}
	.st8{fill:#38BFC3;}
	.st9{fill:#00A792;}
	.st10{fill:#32B34A;}
	.st11{fill:#8EC63E;}
	.st12{fill:#F4D700;}
	.st13{fill:#F47F20;}
</style>
<g id="Layer_3">
	<path class="st0" d="M46.2,47.7c-8.8-5.1-20.1-2.1-25.1,6.7C16,63.3,19,74.5,27.8,79.6l0,0c0.9,0.5,1.8,1,2.8,1.3l0,0l0.2,0
		c1,0.4,2.1,0.6,3.1,0.8l43.1,11.4c3.1,1,6.5-0.7,7.6-3.8c0.8-2.3,0.1-4.7-1.7-6.3l-33.4-33C48.4,49.2,47.3,48.4,46.2,47.7z"/>
	<path class="st1" d="M79.2,28c-5.1-8.8-16.3-11.8-25.1-6.7s-11.8,16.3-6.7,25.1l0,0c0.5,0.9,1.1,1.7,1.8,2.5l0,0l0.1,0.1
		c0.7,0.8,1.4,1.6,2.3,2.3l31.6,31.4c2.2,2.5,6,2.7,8.4,0.5c1.8-1.6,2.4-4.1,1.7-6.3L80.8,31.6C80.4,30.4,79.8,29.2,79.2,28z"/>
	<path class="st1" d="M117.6,27.5c0-10.2-8.2-18.4-18.3-18.5s-18.4,8.2-18.5,18.3c0,1.1,0.1,2.1,0.3,3.2l0,0v0.2
		c0.2,1.1,0.5,2.1,0.8,3.1l11.7,43c0.7,3.2,3.9,5.3,7.1,4.6c2.3-0.5,4.1-2.3,4.6-4.6l11.8-45.5C117.4,30.1,117.6,28.8,117.6,27.5z"
		/>
	<path class="st0" d="M151.2,46.2c5.1-8.8,2.1-20.1-6.7-25.2c-8.8-5.1-20.1-2.1-25.2,6.7c-0.5,0.9-0.9,1.8-1.3,2.8l0,0l0,0.2
		c-0.4,1-0.6,2.1-0.8,3.1l-11.4,43.1c-1,3.1,0.7,6.5,3.9,7.5c2.2,0.7,4.7,0.1,6.3-1.7l33-33.4C149.8,48.4,150.5,47.3,151.2,46.2z"/>
	<path class="st1" d="M170.9,79.2c8.8-5,11.9-16.3,6.9-25.1c-5-8.8-16.3-11.9-25.1-6.9c-0.9,0.5-1.8,1.2-2.7,1.9l0,0l-0.1,0.1
		c-0.8,0.7-1.6,1.5-2.3,2.3l-31.4,31.6c-2.5,2.2-2.7,6-0.4,8.5c1.6,1.8,4,2.4,6.3,1.7l45.3-12.4C168.5,80.4,169.7,79.8,170.9,79.2z"
		/>
	<path class="st0" d="M171.4,117.6c10.2,0.1,18.5-8.1,18.6-18.2c0.1-10.2-8.1-18.5-18.2-18.6c-1.1,0-2.3,0.1-3.4,0.3l0,0h-0.2
		c-1.1,0.2-2.1,0.5-3.1,0.8l-43,11.7c-3.2,0.7-5.3,3.9-4.6,7.1c0.5,2.3,2.3,4.1,4.6,4.6l45.5,11.8
		C168.8,117.4,170.1,117.6,171.4,117.6z"/>
	<path class="st1" d="M152.7,151.2c8.8,5.1,20.1,2.1,25.2-6.7c5.1-8.8,2.1-20.1-6.7-25.2l0,0c-0.9-0.5-1.8-0.9-2.8-1.3l0,0h-0.2
		c-1-0.4-2.1-0.6-3.1-0.8L122,105.7c-3.1-1-6.5,0.7-7.5,3.9c-0.7,2.2-0.1,4.7,1.7,6.3l33.4,33C150.5,149.8,151.6,150.5,152.7,151.2z
		"/>
	<path class="st1" d="M119.7,170.9c5.1,8.8,16.4,11.7,25.2,6.6s11.7-16.4,6.6-25.2c-0.5-0.8-1.1-1.6-1.7-2.4l0,0l-0.1-0.1
		c-0.7-0.8-1.5-1.6-2.3-2.3l-31.6-31.4c-2.2-2.5-6-2.7-8.5-0.4c-1.8,1.6-2.4,4.1-1.7,6.3l12.4,45.3
		C118.5,168.5,119.1,169.7,119.7,170.9z"/>
	<path class="st0" d="M81.3,171.4c-0.1,10.2,8.1,18.5,18.2,18.6c10.2,0.1,18.5-8.1,18.6-18.2c0-1.1-0.1-2.3-0.3-3.4l0,0v-0.2
		c-0.2-1.1-0.5-2.1-0.8-3.1l-11.7-43c-0.7-3.2-3.9-5.3-7.1-4.6c-2.3,0.5-4.1,2.3-4.6,4.6l-11.8,45.5
		C81.5,168.8,81.3,170.1,81.3,171.4z"/>
	<path class="st1" d="M47.7,152.7c-5.1,8.8-2.1,20.1,6.7,25.1s20.1,2.1,25.1-6.7c0.5-0.9,0.9-1.8,1.3-2.8l0,0v-0.2
		c0.4-1,0.6-2.1,0.8-3.1L93.2,122c1-3.1-0.7-6.5-3.8-7.6c-2.3-0.8-4.7-0.1-6.3,1.7l-33,33.5C49.2,150.5,48.4,151.6,47.7,152.7z"/>
	<path class="st0" d="M28,119.7c-8.8,5.1-11.8,16.3-6.7,25.1s16.3,11.8,25.1,6.7c0.9-0.5,1.8-1.1,2.6-1.8l0,0l0.1-0.1
		c0.8-0.7,1.6-1.5,2.3-2.3l31.4-31.6c2.5-2.2,2.7-6,0.5-8.5c-1.6-1.8-4.1-2.4-6.4-1.7l-45.3,12.4C30.4,118.5,29.2,119.1,28,119.7z"
		/>
	<path class="st1" d="M27.5,81.3C17.3,81.3,9,89.5,9,99.6c0,10.2,8.2,18.4,18.3,18.5c1.1,0,2.1-0.1,3.2-0.3l0,0h0.2
		c1.1-0.2,2.1-0.5,3.1-0.8l43-11.7c3.2-0.7,5.3-3.9,4.6-7.1c-0.5-2.3-2.3-4.1-4.6-4.6L31.4,81.8C30.1,81.5,28.8,81.3,27.5,81.3z"/>
	<path class="st2" d="M31.4,114c-19.3,5.2-27.1-24-7.8-29.1C42.9,79.7,50.6,108.9,31.4,114z"/>
	<path class="st3" d="M47.8,146.1c-14.1,14.1-35.5-7.2-21.3-21.3C40.6,110.7,61.9,132,47.8,146.1z"/>
	<path class="st4" d="M78,165.7c-5.2,19.3-34.3,11.5-29.1-7.8S83.2,146.4,78,165.7z"/>
	<path class="st5" d="M114,167.5c5.2,19.3-24,27.1-29.1,7.8C79.7,156,108.9,148.3,114,167.5z"/>
	<path class="st6" d="M146.1,151.1c14.1,14.1-7.2,35.5-21.3,21.3S132,137,146.1,151.1z"/>
	<path class="st7" d="M165.7,120.9c19.3,5.2,11.5,34.3-7.8,29.1S146.4,115.7,165.7,120.9z"/>
	<path class="st8" d="M167.5,84.9c19.3-5.2,27.1,24,7.8,29.1S148.2,90,167.5,84.9z"/>
	<path class="st9" d="M151.1,52.8c14.1-14.1,35.5,7.2,21.3,21.3C158.3,88.2,137,66.9,151.1,52.8z"/>
	<path class="st10" d="M120.9,33.2c5.2-19.3,34.3-11.5,29.1,7.8C144.9,60.3,115.7,52.5,120.9,33.2z"/>
	<path class="st11" d="M84.9,31.4c-5.2-19.3,24-27.1,29.1-7.8C119.2,42.9,90,50.6,84.9,31.4z"/>
	<path class="st12" d="M52.8,47.8C38.7,33.7,60,12.3,74.1,26.4S66.9,61.9,52.8,47.8z"/>
	<path class="st13" d="M33.2,78C14,72.8,21.7,43.7,41,48.8S52.5,83.2,33.2,78z"/>
</g>
</svg>
